<?xml version="1.0" encoding="UTF-8"?>
<svg xmlns="http://www.w3.org/2000/svg" width="1672" height="1290" viewBox="0 0 1672 1290">
  <defs>
    <marker id="arrowhead" markerWidth="10" markerHeight="7" refX="9" refY="3.5" orient="auto">
      <polygon points="0 0, 10 3.5, 0 7" fill="#374151" />
    </marker>
  </defs>
  <rect width="100%" height="100%" fill="#ffffff" />
  <text font-family="Virgil, Segoe UI, PingFang SC, sans-serif" font-size="30" fill="#1e40af" text-anchor="start" opacity="1"><tspan x="40" y="70">详细架构图 · 研发设计评审视角</tspan></text>
<text font-family="Virgil, Segoe UI, PingFang SC, sans-serif" font-size="16" fill="#64748b" text-anchor="start" opacity="1"><tspan x="40" y="104">面向研发评审，展示接入层、认证与 API、Workflow / Agent、服务层、向量检索、SQLite 表域和流式通信证据。</tspan></text>
<polyline points="352,150 352,1240" fill="none" stroke="#64748b" stroke-width="2" stroke-linecap="round" stroke-linejoin="round" opacity="1" />
<polyline points="778,150 778,1240" fill="none" stroke="#64748b" stroke-width="2" stroke-linecap="round" stroke-linejoin="round" opacity="1" />
<polyline points="1228,150 1228,1240" fill="none" stroke="#64748b" stroke-width="2" stroke-linecap="round" stroke-linejoin="round" opacity="1" />
<text font-family="Virgil, Segoe UI, PingFang SC, sans-serif" font-size="24" fill="#1e40af" text-anchor="start" opacity="1"><tspan x="44" y="178">接入与前端</tspan></text>
<rect x="56" y="214" width="252" height="138" rx="10" ry="10" fill="#60a5fa" stroke="#1e3a5f" stroke-width="2" opacity="1" />
<text font-family="Virgil, Segoe UI, PingFang SC, sans-serif" font-size="20" fill="#ffffff" text-anchor="middle" opacity="1"><tspan x="182" y="264">src/web/</tspan><tspan x="182" y="289">Login.vue</tspan><tspan x="182" y="314">App.vue</tspan><tspan x="182" y="339">api.ts</tspan><tspan x="182" y="364">styles.css</tspan><tspan x="182" y="389"></tspan><tspan x="182" y="414">项目列表 / 进度 / Chat / 草稿 / 评估</tspan></text>
<rect x="56" y="394" width="252" height="208" rx="10" ry="10" fill="#1e293b" stroke="#1e3a5f" stroke-width="2" opacity="1" />
<text font-family="Virgil, Segoe UI, PingFang SC, sans-serif" font-size="18" fill="#22c55e" text-anchor="start" opacity="1"><tspan x="80" y="438">前端事件消费</tspan><tspan x="80" y="460.5">EventSource(</tspan><tspan x="80" y="483">/run/stream)</tspan><tspan x="80" y="505.5">steps</tspan><tspan x="80" y="528">progress</tspan><tspan x="80" y="550.5">complete</tspan><tspan x="80" y="573">error</tspan><tspan x="80" y="595.5">fetch(/chat)</tspan><tspan x="80" y="618">chunk / done</tspan></text>
<rect x="56" y="608" width="252" height="126" rx="10" ry="10" fill="#93c5fd" stroke="#1e3a5f" stroke-width="2" opacity="1" />
<text font-family="Virgil, Segoe UI, PingFang SC, sans-serif" font-size="16" fill="#374151" text-anchor="middle" opacity="1"><tspan x="183" y="648">角色可见性</tspan><tspan x="183" y="668">owner / editor / viewer</tspan><tspan x="183" y="688">前端显示登录页与</tspan><tspan x="183" y="708">成员管理入口</tspan></text>
<text font-family="Virgil, Segoe UI, PingFang SC, sans-serif" font-size="24" fill="#1e40af" text-anchor="start" opacity="1"><tspan x="390" y="178">认证与 API 层</tspan></text>
<rect x="406" y="214" width="318" height="176" rx="10" ry="10" fill="#fef3c7" stroke="#b45309" stroke-width="2" opacity="1" />
<text font-family="Virgil, Segoe UI, PingFang SC, sans-serif" font-size="16" fill="#374151" text-anchor="middle" opacity="1"><tspan x="566" y="246">src/server.ts</tspan><tspan x="566" y="266">原生 HTTP 路由</tspan><tspan x="566" y="286">/auth/*</tspan><tspan x="566" y="306">/projects/*</tspan><tspan x="566" y="326">/run / run/stream</tspan><tspan x="566" y="346">/chat</tspan><tspan x="566" y="366">/export/docx / evaluations</tspan><tspan x="566" y="386">/members</tspan></text>
<rect x="406" y="380" width="150" height="118" rx="10" ry="10" fill="#60a5fa" stroke="#1e3a5f" stroke-width="2" opacity="1" />
<text font-family="Virgil, Segoe UI, PingFang SC, sans-serif" font-size="18" fill="#ffffff" text-anchor="middle" opacity="1"><tspan x="481" y="428">src/auth/</tspan><tspan x="481" y="450.5">jwt.ts</tspan><tspan x="481" y="473">middleware.ts</tspan><tspan x="481" y="495.5">routes.ts</tspan></text>
<rect x="574" y="380" width="152" height="132" rx="10" ry="10" fill="#1e293b" stroke="#1e3a5f" stroke-width="2" opacity="1" />
<text font-family="Virgil, Segoe UI, PingFang SC, sans-serif" font-size="16" fill="#22c55e" text-anchor="middle" opacity="1"><tspan x="650" y="414">SSE contract</tspan><tspan x="650" y="434">steps</tspan><tspan x="650" y="454">progress</tspan><tspan x="650" y="474">complete</tspan><tspan x="650" y="494">error</tspan><tspan x="650" y="514">chunk / done</tspan></text>
<polyline points="312,284 400,284" fill="none" stroke="#1e3a5f" stroke-width="2" stroke-linecap="round" stroke-linejoin="round" opacity="1" marker-end="url(#arrowhead)" />
<text font-family="Virgil, Segoe UI, PingFang SC, sans-serif" font-size="24" fill="#1e40af" text-anchor="start" opacity="1"><tspan x="814" y="178">编排与服务核心</tspan></text>
<rect x="812" y="214" width="372" height="206" rx="10" ry="10" fill="#ddd6fe" stroke="#6d28d9" stroke-width="2" opacity="1" />
<text font-family="Virgil, Segoe UI, PingFang SC, sans-serif" font-size="16" fill="#374151" text-anchor="middle" opacity="1"><tspan x="998" y="242">src/mastra/bidWorkflow.ts</tspan><tspan x="998" y="262">createWorkflow({ id:</tspan><tspan x="998" y="282">'solution-orch-bid-workflow' })</tspan><tspan x="998" y="302">then(requirementAnalysisStep)</tspan><tspan x="998" y="322">then(productIndexingStep)</tspan><tspan x="998" y="342">then(productMatchingStep)</tspan><tspan x="998" y="362">then(draftGenerationStep)</tspan><tspan x="998" y="382">then(aiReviewStep)</tspan></text>
<ellipse cx="912" cy="463" rx="68" ry="47" fill="#ddd6fe" stroke="#6d28d9" stroke-width="2" opacity="1" />
<ellipse cx="1023" cy="458" rx="83" ry="54" fill="#ddd6fe" stroke="#6d28d9" stroke-width="2" opacity="1" />
<text font-family="Virgil, Segoe UI, PingFang SC, sans-serif" font-size="18" fill="#374151" text-anchor="middle" opacity="1"><tspan x="975" y="452">Requirement</tspan><tspan x="975" y="474.5">Matcher</tspan><tspan x="975" y="497">Draft Writer</tspan><tspan x="975" y="519.5">Review</tspan><tspan x="975" y="542">Chat Agent</tspan></text>
<rect x="812" y="560" width="372" height="244" rx="10" ry="10" fill="#93c5fd" stroke="#1e3a5f" stroke-width="2" opacity="1" />
<text font-family="Virgil, Segoe UI, PingFang SC, sans-serif" font-size="16" fill="#374151" text-anchor="middle" opacity="1"><tspan x="998" y="600">src/services/</tspan><tspan x="998" y="620">documentParser.ts</tspan><tspan x="998" y="640">llm.ts</tspan><tspan x="998" y="660">agentRuntime.ts</tspan><tspan x="998" y="680">vectorStore.ts</tspan><tspan x="998" y="700">embedding/index.ts</tspan><tspan x="998" y="720">embedding/router.ts</tspan><tspan x="998" y="740">embedding/cache.ts</tspan><tspan x="998" y="760">exportDocx.ts</tspan><tspan x="998" y="780"></tspan><tspan x="998" y="800">ctx.metrics + previousRun 跨步骤共享</tspan></text>
<polyline points="728,280 804,280" fill="none" stroke="#b45309" stroke-width="2" stroke-linecap="round" stroke-linejoin="round" opacity="1" marker-end="url(#arrowhead)" />
<text font-family="Virgil, Segoe UI, PingFang SC, sans-serif" font-size="24" fill="#1e40af" text-anchor="start" opacity="1"><tspan x="1264" y="178">存储与外部能力</tspan></text>
<rect x="1266" y="214" width="330" height="346" rx="10" ry="10" fill="#a7f3d0" stroke="#047857" stroke-width="2" opacity="1" />
<text font-family="Virgil, Segoe UI, PingFang SC, sans-serif" font-size="16" fill="#374151" text-anchor="middle" opacity="1"><tspan x="1424" y="254">src/storage/database.ts</tspan><tspan x="1424" y="274">node:sqlite</tspan><tspan x="1424" y="294"></tspan><tspan x="1424" y="314">projects</tspan><tspan x="1424" y="334">users</tspan><tspan x="1424" y="354">project_members</tspan><tspan x="1424" y="374">documents</tspan><tspan x="1424" y="394">requirements</tspan><tspan x="1424" y="414">matches</tspan><tspan x="1424" y="434">drafts</tspan><tspan x="1424" y="454">review_findings</tspan><tspan x="1424" y="474">workflow_runs</tspan><tspan x="1424" y="494">vector_chunks</tspan><tspan x="1424" y="514">conversations</tspan><tspan x="1424" y="534">evaluations</tspan></text>
<rect x="1266" y="530" width="172" height="122" rx="10" ry="10" fill="#60a5fa" stroke="#1e3a5f" stroke-width="2" opacity="1" />
<text font-family="Virgil, Segoe UI, PingFang SC, sans-serif" font-size="18" fill="#ffffff" text-anchor="middle" opacity="1"><tspan x="1352" y="584">向量与检索</tspan><tspan x="1352" y="606.5">vectorStore.ts</tspan><tspan x="1352" y="629">余弦相似度</tspan></text>
<rect x="1470" y="530" width="162" height="122" rx="10" ry="10" fill="#93c5fd" stroke="#1e3a5f" stroke-width="2" opacity="1" />
<text font-family="Virgil, Segoe UI, PingFang SC, sans-serif" font-size="18" fill="#374151" text-anchor="middle" opacity="1"><tspan x="1540" y="584">Embedding Router</tspan><tspan x="1540" y="606.5">local / cloud</tspan><tspan x="1540" y="629">LRU cache</tspan></text>
<ellipse cx="1429" cy="746" rx="105" ry="44" fill="#ddd6fe" stroke="#6d28d9" stroke-width="2" opacity="1" />
<text font-family="Virgil, Segoe UI, PingFang SC, sans-serif" font-size="18" fill="#374151" text-anchor="middle" opacity="1"><tspan x="1417" y="742">OpenAI compatible</tspan><tspan x="1417" y="764.5">DeepSeek / other</tspan><tspan x="1417" y="787">model</tspan></text>
<rect x="1334" y="834" width="190" height="114" rx="10" ry="10" fill="#93c5fd" stroke="#1e3a5f" stroke-width="2" opacity="1" />
<text font-family="Virgil, Segoe UI, PingFang SC, sans-serif" font-size="18" fill="#374151" text-anchor="middle" opacity="1"><tspan x="1430" y="884">本地文件系统</tspan><tspan x="1430" y="906.5">uploads/</tspan><tspan x="1430" y="929">DOCX export</tspan></text>
<polyline points="1188,310 1260,310" fill="none" stroke="#6d28d9" stroke-width="2" stroke-linecap="round" stroke-linejoin="round" opacity="1" marker-end="url(#arrowhead)" />
<polyline points="1188,668 1258,612" fill="none" stroke="#1e3a5f" stroke-width="2" stroke-linecap="round" stroke-linejoin="round" opacity="1" marker-end="url(#arrowhead)" />
<polyline points="1188,700 1320,744" fill="none" stroke="#6d28d9" stroke-width="2" stroke-linecap="round" stroke-linejoin="round" opacity="1" marker-end="url(#arrowhead)" />
<polyline points="1524,654 1430,646" fill="none" stroke="#1e3a5f" stroke-width="2" stroke-linecap="round" stroke-linejoin="round" opacity="1" marker-end="url(#arrowhead)" />
<polyline points="1432,496 1432,828" fill="none" stroke="#047857" stroke-width="2" stroke-linecap="round" stroke-linejoin="round" opacity="1" marker-end="url(#arrowhead)" />
<rect x="42" y="1002" width="510" height="236" rx="10" ry="10" fill="#1e293b" stroke="#1e3a5f" stroke-width="2" opacity="1" />
<text font-family="Virgil, Segoe UI, PingFang SC, sans-serif" font-size="18" fill="#22c55e" text-anchor="start" opacity="1"><tspan x="64" y="1046">真实 API 证据</tspan><tspan x="64" y="1068.5">POST /api/auth/login</tspan><tspan x="64" y="1091">POST /api/projects/:id/run</tspan><tspan x="64" y="1113.5">GET /api/projects/:id/run/stream</tspan><tspan x="64" y="1136">POST /api/projects/:id/chat</tspan><tspan x="64" y="1158.5">GET /api/projects/:id/evaluations</tspan><tspan x="64" y="1181">PATCH /api/evaluations/:id</tspan><tspan x="64" y="1203.5">POST /api/projects/:id/export/docx</tspan></text>
<rect x="586" y="1002" width="540" height="248" rx="10" ry="10" fill="#1e293b" stroke="#1e3a5f" stroke-width="2" opacity="1" />
<text font-family="Virgil, Segoe UI, PingFang SC, sans-serif" font-size="18" fill="#22c55e" text-anchor="start" opacity="1"><tspan x="608" y="1046">真实编排证据</tspan><tspan x="608" y="1068.5">WORKFLOW_STEPS =</tspan><tspan x="608" y="1091">requirement-analysis /</tspan><tspan x="608" y="1113.5">product-knowledge-indexing /</tspan><tspan x="608" y="1136">product-matching /</tspan><tspan x="608" y="1158.5">draft-generation / ai-review</tspan><tspan x="608" y="1181">runBidWorkflowWithProgress()</tspan><tspan x="608" y="1203.5">emit(progress)</tspan><tspan x="608" y="1226">ctx.metrics</tspan><tspan x="608" y="1248.5">previousRun</tspan></text>
<rect x="1160" y="1002" width="470" height="236" rx="10" ry="10" fill="#1e293b" stroke="#1e3a5f" stroke-width="2" opacity="1" />
<text font-family="Virgil, Segoe UI, PingFang SC, sans-serif" font-size="18" fill="#22c55e" text-anchor="start" opacity="1"><tspan x="1182" y="1046">真实持久化证据</tspan><tspan x="1182" y="1068.5">conversations -&gt; 会话持久化</tspan><tspan x="1182" y="1091">workflow_runs.result_json -&gt; 上次运行上下文</tspan><tspan x="1182" y="1113.5">vector_chunks -&gt; 向量片段</tspan><tspan x="1182" y="1136">project_members -&gt; 多租户角色</tspan><tspan x="1182" y="1158.5">notes / score -&gt; 人工评估回写</tspan></text>
</svg>